name rise35.5848peak51.9257fall54.8793.mot
datacolumns 19
datarows 27
range 20.02825500000000 20.07158400000000
endheader
time	ground_force1_vx	ground_force1_vy	ground_force1_vz	ground_force1_px	ground_force1_py	ground_force1_pz	ground_force2_vx	ground_force2_vy	ground_force2_vz	ground_force2_px	ground_force2_py	ground_force2_pz	ground_torque1_x	ground_torque1_y	ground_torque1_z	ground_torque2_x	ground_torque2_y	ground_torque2_z	
20.02825500000000	65.46639000000000	788.43014300000004	58.06148900000000	0.28980200000000	0.00000000000000	0.10137800000000	0.00000000000000	0.00000000000000	0.00000000000000	0.00000000000000	0.00000000000000	0.00000000000000	0.00000000000000	20.53634000000000	0.00000000000000	0.00000000000000	0.00000000000000	0.00000000000000	
20.02991700000000	64.71427700000000	790.50467500000002	58.02265000000000	0.28888900000000	0.00000000000000	0.10136200000000	0.00000000000000	0.00000000000000	0.00000000000000	0.00000000000000	0.00000000000000	0.00000000000000	0.00000000000000	20.53174300000000	0.00000000000000	0.00000000000000	0.00000000000000	0.00000000000000	
20.03158400000000	63.95445700000000	792.40219700000000	57.97816600000000	0.28797000000000	0.00000000000000	0.10134700000000	0.00000000000000	0.00000000000000	0.00000000000000	0.00000000000000	0.00000000000000	0.00000000000000	0.00000000000000	20.52578100000000	0.00000000000000	0.00000000000000	0.00000000000000	0.00000000000000	
20.03324900000000	63.18779900000000	794.12320799999998	57.92851000000000	0.28704500000000	0.00000000000000	0.10133300000000	0.00000000000000	0.00000000000000	0.00000000000000	0.00000000000000	0.00000000000000	0.00000000000000	0.00000000000000	20.51858100000000	0.00000000000000	0.00000000000000	0.00000000000000	0.00000000000000	
20.03492200000000	62.41513600000000	795.66845899999998	57.87409200000000	0.28611300000000	0.00000000000000	0.10132000000000	0.00000000000000	0.00000000000000	0.00000000000000	0.00000000000000	0.00000000000000	0.00000000000000	0.00000000000000	20.51023500000000	0.00000000000000	0.00000000000000	0.00000000000000	0.00000000000000	
20.03658800000000	61.63726700000000	797.03895100000000	57.81526200000000	0.28517300000000	0.00000000000000	0.10130800000000	0.00000000000000	0.00000000000000	0.00000000000000	0.00000000000000	0.00000000000000	0.00000000000000	0.00000000000000	20.50080400000000	0.00000000000000	0.00000000000000	0.00000000000000	0.00000000000000	
20.03825200000000	60.85496100000000	798.23594100000003	57.75230800000000	0.28422300000000	0.00000000000000	0.10129700000000	0.00000000000000	0.00000000000000	0.00000000000000	0.00000000000000	0.00000000000000	0.00000000000000	0.00000000000000	20.49031800000000	0.00000000000000	0.00000000000000	0.00000000000000	0.00000000000000	
20.03991900000000	60.06895400000000	799.26093800000001	57.68546300000000	0.28326400000000	0.00000000000000	0.10128800000000	0.00000000000000	0.00000000000000	0.00000000000000	0.00000000000000	0.00000000000000	0.00000000000000	0.00000000000000	20.47878100000000	0.00000000000000	0.00000000000000	0.00000000000000	0.00000000000000	
20.04158500000000	59.27995600000000	800.11570600000005	57.61490400000000	0.28229500000000	0.00000000000000	0.10128000000000	0.00000000000000	0.00000000000000	0.00000000000000	0.00000000000000	0.00000000000000	0.00000000000000	0.00000000000000	20.46616600000000	0.00000000000000	0.00000000000000	0.00000000000000	0.00000000000000	
20.04324800000000	58.48864400000000	800.80226500000003	57.54075800000000	0.28131400000000	0.00000000000000	0.10127300000000	0.00000000000000	0.00000000000000	0.00000000000000	0.00000000000000	0.00000000000000	0.00000000000000	0.00000000000000	20.45242400000000	0.00000000000000	0.00000000000000	0.00000000000000	0.00000000000000	
20.04491400000000	57.69567200000000	801.32288200000005	57.46310200000000	0.28032200000000	0.00000000000000	0.10126800000000	0.00000000000000	0.00000000000000	0.00000000000000	0.00000000000000	0.00000000000000	0.00000000000000	0.00000000000000	20.43748500000000	0.00000000000000	0.00000000000000	0.00000000000000	0.00000000000000	
20.04658200000000	56.90166600000000	801.68007499999999	57.38196900000000	0.27931800000000	0.00000000000000	0.10126400000000	0.00000000000000	0.00000000000000	0.00000000000000	0.00000000000000	0.00000000000000	0.00000000000000	0.00000000000000	20.42125400000000	0.00000000000000	0.00000000000000	0.00000000000000	0.00000000000000	
20.04825600000000	56.10722900000000	801.87660600000004	57.29735200000000	0.27830100000000	0.00000000000000	0.10126100000000	0.00000000000000	0.00000000000000	0.00000000000000	0.00000000000000	0.00000000000000	0.00000000000000	0.00000000000000	20.40362300000000	0.00000000000000	0.00000000000000	0.00000000000000	0.00000000000000	
20.04991800000000	55.31294100000000	801.91547800000001	57.20920300000000	0.27727100000000	0.00000000000000	0.10126000000000	0.00000000000000	0.00000000000000	0.00000000000000	0.00000000000000	0.00000000000000	0.00000000000000	0.00000000000000	20.38446600000000	0.00000000000000	0.00000000000000	0.00000000000000	0.00000000000000	
20.05158500000000	54.51935900000000	801.79992900000002	57.11744300000000	0.27622700000000	0.00000000000000	0.10126100000000	0.00000000000000	0.00000000000000	0.00000000000000	0.00000000000000	0.00000000000000	0.00000000000000	0.00000000000000	20.36364400000000	0.00000000000000	0.00000000000000	0.00000000000000	0.00000000000000	
20.05325700000000	53.72702000000000	801.53342499999997	57.02196400000000	0.27517000000000	0.00000000000000	0.10126300000000	0.00000000000000	0.00000000000000	0.00000000000000	0.00000000000000	0.00000000000000	0.00000000000000	0.00000000000000	20.34100700000000	0.00000000000000	0.00000000000000	0.00000000000000	0.00000000000000	
20.05492100000000	52.93644400000000	801.11965599999996	56.92263300000000	0.27410000000000	0.00000000000000	0.10126600000000	0.00000000000000	0.00000000000000	0.00000000000000	0.00000000000000	0.00000000000000	0.00000000000000	0.00000000000000	20.31639800000000	0.00000000000000	0.00000000000000	0.00000000000000	0.00000000000000	
20.05658400000000	52.14813100000000	800.56252400000005	56.81929300000000	0.27301500000000	0.00000000000000	0.10127100000000	0.00000000000000	0.00000000000000	0.00000000000000	0.00000000000000	0.00000000000000	0.00000000000000	0.00000000000000	20.28965500000000	0.00000000000000	0.00000000000000	0.00000000000000	0.00000000000000	
20.05824900000000	51.36256500000000	799.86613899999998	56.71177300000000	0.27191600000000	0.00000000000000	0.10127800000000	0.00000000000000	0.00000000000000	0.00000000000000	0.00000000000000	0.00000000000000	0.00000000000000	0.00000000000000	20.26061000000000	0.00000000000000	0.00000000000000	0.00000000000000	0.00000000000000	
20.05992100000000	50.58021400000000	799.03480800000000	56.59989000000000	0.27080400000000	0.00000000000000	0.10128600000000	0.00000000000000	0.00000000000000	0.00000000000000	0.00000000000000	0.00000000000000	0.00000000000000	0.00000000000000	20.22909800000000	0.00000000000000	0.00000000000000	0.00000000000000	0.00000000000000	
20.06159000000000	49.80153000000000	798.07302600000003	56.48344900000000	0.26967800000000	0.00000000000000	0.10129500000000	0.00000000000000	0.00000000000000	0.00000000000000	0.00000000000000	0.00000000000000	0.00000000000000	0.00000000000000	20.19495100000000	0.00000000000000	0.00000000000000	0.00000000000000	0.00000000000000	
20.06325600000000	49.02695400000000	796.98546499999998	56.36225500000000	0.26853800000000	0.00000000000000	0.10130600000000	0.00000000000000	0.00000000000000	0.00000000000000	0.00000000000000	0.00000000000000	0.00000000000000	0.00000000000000	20.15800900000000	0.00000000000000	0.00000000000000	0.00000000000000	0.00000000000000	
20.06491800000000	48.25691000000000	795.77696400000002	56.23610800000000	0.26738600000000	0.00000000000000	0.10131800000000	0.00000000000000	0.00000000000000	0.00000000000000	0.00000000000000	0.00000000000000	0.00000000000000	0.00000000000000	20.11811400000000	0.00000000000000	0.00000000000000	0.00000000000000	0.00000000000000	
20.06658500000000	47.49181400000000	794.45251599999995	56.10481500000000	0.26622100000000	0.00000000000000	0.10133100000000	0.00000000000000	0.00000000000000	0.00000000000000	0.00000000000000	0.00000000000000	0.00000000000000	0.00000000000000	20.07511900000000	0.00000000000000	0.00000000000000	0.00000000000000	0.00000000000000	
20.06824900000000	46.73206400000000	793.01725999999996	55.96818700000000	0.26504300000000	0.00000000000000	0.10134500000000	0.00000000000000	0.00000000000000	0.00000000000000	0.00000000000000	0.00000000000000	0.00000000000000	0.00000000000000	20.02888500000000	0.00000000000000	0.00000000000000	0.00000000000000	0.00000000000000	
20.06992000000000	45.97805300000000	791.47646599999996	55.82604700000000	0.26385400000000	0.00000000000000	0.10136100000000	0.00000000000000	0.00000000000000	0.00000000000000	0.00000000000000	0.00000000000000	0.00000000000000	0.00000000000000	19.97928300000000	0.00000000000000	0.00000000000000	0.00000000000000	0.00000000000000	
20.07158400000000	45.23015700000000	789.83552099999997	55.67823100000000	0.26265500000000	0.00000000000000	0.10137700000000	0.00000000000000	0.00000000000000	0.00000000000000	0.00000000000000	0.00000000000000	0.00000000000000	0.00000000000000	19.92619900000000	0.00000000000000	0.00000000000000	0.00000000000000	0.00000000000000	
